# Blender v2.82 (sub 7) OBJ File: 'cube.blend'
# www.blender.org
mtllib atm.mtl
o Cube_Cube.002
v 0.090258 0.090258 1.000000
v 0.090258 0.909742 1.000000
v 0.000000 0.000000 0.000000
v 0.000000 1.000000 0.000000
v 0.909742 0.090258 1.000000
v 0.909742 0.909742 1.000000
v 1.000000 0.000000 0.000000
v 1.000000 1.000000 0.000000
v 0.000000 0.000000 1.000000
v 0.000000 1.000000 1.000000
v 1.000000 1.000000 1.000000
v 1.000000 0.000000 1.000000
v 0.130301 0.218728 0.636849
v 0.130301 0.802584 0.585094
v 0.865445 0.802584 0.585094
v 0.865445 0.218728 0.636849
v 0.317836 0.189108 0.709949
v 0.317836 0.222690 0.724614
v 0.729623 0.189108 0.709949
v 0.729623 0.222690 0.724614
v 0.317836 0.092391 0.931428
v 0.317836 0.125973 0.946093
v 0.729623 0.092391 0.931428
v 0.729623 0.125973 0.946093
vt 0.225965 0.478753
vt 0.225965 0.245839
vt 0.445319 0.245811
vt 0.445319 0.478726
vt 0.226254 0.242636
vt 0.006547 0.242637
vt 0.006547 0.009722
vt 0.226254 0.009722
vt 0.225965 0.247421
vt 0.225965 0.480336
vt 0.006547 0.480313
vt 0.006547 0.247399
vt 0.098358 0.502559
vt 0.098358 0.693430
vt 0.004959 0.684103
vt 0.004959 0.512877
vt 0.445319 0.245811
vt 0.663274 0.245811
vt 0.663274 0.478726
vt 0.662467 0.006547
vt 0.662467 0.239462
vt 0.445927 0.239462
vt 0.445927 0.006547
vt 0.246081 0.218439
vt 0.426100 0.218439
vt 0.226254 0.239462
vt 0.426100 0.027569
vt 0.246081 0.027569
vt 0.226254 0.006547
vt 0.620206 0.500489
vt 0.991006 0.500489
vt 0.991006 0.994739
vt 0.620206 0.994740
vt 0.201033 0.500972
vt 0.201033 0.691842
vt 0.109470 0.666873
vt 0.120822 0.530883
vt 0.407216 0.489865
vt 0.407216 0.680735
vt 0.323804 0.670418
vt 0.323804 0.499192
vt 0.317454 0.493040
vt 0.317454 0.683910
vt 0.237321 0.653997
vt 0.225965 0.518007
vt 0.897170 0.014257
vt 0.986064 0.014257
vt 0.986064 0.103150
vt 0.897170 0.103150
vt 0.986064 0.192044
vt 0.897170 0.192044
vt 0.986064 0.280938
vt 0.897170 0.280938
vt 0.986064 0.369832
vt 0.897170 0.369832
vt 0.808276 0.192044
vt 0.808276 0.280938
vt 0.439103 0.740331
vt 0.439103 0.994754
vt 0.005597 0.994754
vt 0.005597 0.740331
vn -1.0000 0.0000 0.0000
vn 0.0000 0.0000 -1.0000
vn 1.0000 0.0000 0.0000
vn 0.0000 -0.9682 0.2501
vn 0.0000 -1.0000 0.0000
vn 0.0000 1.0000 0.0000
vn 0.0000 0.0000 1.0000
vn 0.0000 0.0883 0.9961
vn -0.9936 0.0042 0.1132
vn 0.0000 0.9427 0.3335
vn 0.9947 0.0038 0.1025
vn -0.0000 0.4002 -0.9164
vn 0.0000 -0.4002 0.9164
vn 0.0000 -0.9164 -0.4002
vn 0.0000 0.9164 0.4002
usemtl Material
s off
f 9/1/1 10/2/1 4/3/1 3/4/1
f 3/5/2 4/6/2 8/7/2 7/8/2
f 7/9/3 8/10/3 11/11/3 12/12/3
f 6/13/4 2/14/4 14/15/4 15/16/4
f 3/4/5 7/17/5 12/18/5 9/19/5
f 8/20/6 4/21/6 10/22/6 11/23/6
f 1/24/7 2/25/7 10/22/7 9/26/7
f 6/27/7 5/28/7 12/29/7 11/23/7
f 5/28/7 1/24/7 9/26/7 12/29/7
f 2/25/7 6/27/7 11/23/7 10/22/7
f 16/30/8 15/31/8 14/32/8 13/33/8
f 5/34/9 6/35/9 15/36/9 16/37/9
f 1/38/10 5/39/10 16/40/10 13/41/10
f 2/42/11 1/43/11 13/44/11 14/45/11
f 17/46/12 18/47/12 20/48/12 19/49/12
f 19/49/3 20/48/3 24/50/3 23/51/3
f 23/51/13 24/50/13 22/52/13 21/53/13
f 21/53/1 22/52/1 18/54/1 17/55/1
f 19/56/14 23/51/14 21/53/14 17/57/14
f 24/58/15 20/59/15 18/60/15 22/61/15
